<?xml version="1.0" encoding="UTF-8"?>
<svg id="Capa_1" data-name="Capa 1" xmlns="http://www.w3.org/2000/svg" viewBox="0 0 787.76 549.26">
  <defs>
    <style>
      .cls-1 {
        fill: #1e1e1c;
      }
    </style>
  </defs>
  <path class="cls-1" d="M675.52,366.27c-29.85,96.84-120.29,169.51-220.82,180.94-141.56,17.66-275.04-80.7-300.87-220.98C126.4,186.66,215.09,44.87,352.85,9.12c82.29-22.27,173.96-3.13,240.14,50.56,39.14,31.49,69.21,74.5,85.24,121.88,10.76,31.48,15.34,64.89,13.61,97.75l-19.1-.34c-.76-30.51-6.89-60.67-18.23-88.61C609.22,76.19,481.52,12.24,363.49,47.36c-115.05,31.41-190.76,153.91-166.86,270.75,28.71,154.04,198.56,238.28,339.45,169.74,54.43-25.95,98.18-72.51,121.5-128.16,0,0,17.93,6.58,17.93,6.58h0Z"/>
  <g>
    <path class="cls-1" d="M0,273.32c196.66-14.03,393.82-15.63,590.82-10.37,65.74,2.25,131.39,5.38,196.94,11.87,0,0,0,8.69,0,8.69-32.82,3.34-65.65,5.55-98.47,7.44-229.62,11.29-459.88,9.4-689.28-6.38,0,0,0-11.26,0-11.26h0Z"/>
    <polygon class="cls-1" points="522.35 148.34 559.54 275.58 560.6 279.21 559.54 282.78 521.82 409.93 510.67 408 517.78 275.57 517.78 282.77 510.29 150.42 522.35 148.34 522.35 148.34"/>
  </g>
</svg>